<svg width="21" height="20" viewBox="0 0 21 20" fill="none" xmlns="http://www.w3.org/2000/svg">
<path d="M3.89598 1.6001C2.78517 1.6001 1.87598 2.50029 1.87598 3.6001V16.4001C1.87598 17.4999 2.78517 18.4001 3.89598 18.4001H10.6961C10.7397 18.4072 10.7843 18.4072 10.8279 18.4001H13.1201C13.1637 18.4072 13.2083 18.4072 13.2519 18.4001H16.824C17.9348 18.4001 18.844 17.4999 18.844 16.4001V3.6001C18.844 2.50029 17.9348 1.6001 16.824 1.6001H3.89598ZM3.89598 2.4001H16.824C17.498 2.4001 18.036 2.9327 18.036 3.6001V16.4001C18.036 17.0675 17.498 17.6001 16.824 17.6001H13.592V12.0001H15.1354L15.7011 9.2001H13.592V8.4001C13.592 8.1771 13.6134 8.15967 13.689 8.11104C13.7647 8.0624 13.9983 8.0001 14.4 8.0001H15.612V5.74775L15.3816 5.63916C15.3816 5.63916 14.4536 5.2001 13.188 5.2001C12.279 5.2001 11.5322 5.55868 11.0544 6.1501C10.5765 6.74152 10.36 7.53343 10.36 8.4001V9.2001H9.14798V12.0001H10.36V17.6001H3.89598C3.22191 17.6001 2.68398 17.0675 2.68398 16.4001V3.6001C2.68398 2.9327 3.22191 2.4001 3.89598 2.4001ZM13.188 6.0001C14.0279 6.0001 14.5565 6.18348 14.804 6.28057V7.2001H14.4C13.935 7.2001 13.5625 7.23818 13.2487 7.43994C12.935 7.64171 12.784 8.02469 12.784 8.4001V10.0001H14.7148L14.4726 11.2001H12.784V17.6001H11.168V11.2001H9.95598V10.0001H11.168V8.4001C11.168 7.66676 11.3555 7.05868 11.6856 6.6501C12.0157 6.24152 12.481 6.0001 13.188 6.0001Z" fill="#D10C04"/>
</svg>
