<svg width="19" height="18" viewBox="0 0 19 18" fill="none" xmlns="http://www.w3.org/2000/svg">
<path d="M5.96404 0.199951C3.06836 0.199951 0.712036 2.53294 0.712036 5.39995V12.6C0.712036 15.467 3.06836 17.8 5.96404 17.8H13.236C16.1317 17.8 18.488 15.467 18.488 12.6V5.39995C18.488 2.53294 16.1317 0.199951 13.236 0.199951H5.96404ZM5.96404 0.999951H13.236C15.695 0.999951 17.68 2.96536 17.68 5.39995V12.6C17.68 15.0345 15.695 17 13.236 17H5.96404C3.5051 17 1.52004 15.0345 1.52004 12.6V5.39995C1.52004 2.96536 3.5051 0.999951 5.96404 0.999951ZM14.448 3.39995C14.2337 3.39995 14.0282 3.48424 13.8767 3.63427C13.7252 3.7843 13.64 3.98778 13.64 4.19995C13.64 4.41212 13.7252 4.61561 13.8767 4.76564C14.0282 4.91567 14.2337 4.99995 14.448 4.99995C14.6623 4.99995 14.8679 4.91567 15.0194 4.76564C15.1709 4.61561 15.256 4.41212 15.256 4.19995C15.256 3.98778 15.1709 3.7843 15.0194 3.63427C14.8679 3.48424 14.6623 3.39995 14.448 3.39995ZM9.60004 4.59995C7.15047 4.59995 5.15604 6.57464 5.15604 8.99995C5.15604 11.4253 7.15047 13.4 9.60004 13.4C12.0496 13.4 14.044 11.4253 14.044 8.99995C14.044 6.57464 12.0496 4.59995 9.60004 4.59995ZM9.60004 5.39995C11.6129 5.39995 13.236 7.00699 13.236 8.99995C13.236 10.9929 11.6129 12.6 9.60004 12.6C7.58714 12.6 5.96404 10.9929 5.96404 8.99995C5.96404 7.00699 7.58714 5.39995 9.60004 5.39995Z" fill="#850000"/>
</svg>
