<svg xmlns="http://www.w3.org/2000/svg" xmlns:xlink="http://www.w3.org/1999/xlink" width="180" height="32.054" viewBox="0 0 180 32.054">
  <defs>
    <clipPath id="clip-path">
      <rect id="Rectangle_1944" data-name="Rectangle 1944" width="180" height="32.054" fill="none"/>
    </clipPath>
  </defs>
  <g id="logo-manitoba-new" transform="translate(0 0)">
    <g id="Group_6166" data-name="Group 6166" transform="translate(0 0)" clip-path="url(#clip-path)">
      <path id="Path_3168" data-name="Path 3168" d="M25.991.64H18.483a1.3,1.3,0,0,0-1.173.747L13.969,7.831a.53.53,0,0,1-1,0L9.631,1.387A1.3,1.3,0,0,0,8.458.64H.949A.949.949,0,0,0,0,1.589V16.151a.949.949,0,0,0,.949.949H6.1a.949.949,0,0,0,.949-.949V10.046a.512.512,0,0,1,.97-.23l3.4,6.488a1.436,1.436,0,0,0,1.156.777V17.1h1.787v-.019a1.436,1.436,0,0,0,1.156-.777l3.4-6.488a.512.512,0,0,1,.97.23v6.105a.949.949,0,0,0,.949.949h5.155a.949.949,0,0,0,.949-.949V1.589A.949.949,0,0,0,25.991.64" transform="translate(0 -0.238)" fill="#d10c04"/>
      <path id="Path_3169" data-name="Path 3169" d="M130.449,17.1h-5.38a.873.873,0,0,1-.873-.873V1.517a.873.873,0,0,1,.873-.873h5.38a.873.873,0,0,1,.873.873v14.71a.872.872,0,0,1-.873.873" transform="translate(-46.221 -0.239)" fill="#d10c04"/>
      <path id="Path_3170" data-name="Path 3170" d="M197.5,8.579v.033c0,4.738-3.472,8.579-11.283,8.579h-.588c-7.811,0-11.283-3.841-11.283-8.579V8.579C174.348,3.84,177.82,0,185.631,0h.588C194.031,0,197.5,3.84,197.5,8.579M186.069,5.237h-.185c-2.8,0-4.081,1.429-4.081,3.192v.337c0,1.763,1.281,3.192,4.081,3.192h.185c2.8,0,4.081-1.429,4.081-3.192V8.429c0-1.763-1.282-3.192-4.081-3.192" transform="translate(-64.886 0)" fill="#d10c04"/>
      <path id="Path_3171" data-name="Path 3171" d="M159.119.64H139.553a.854.854,0,0,0-.854.854V5.052a.854.854,0,0,0,.854.854h5.3a.954.954,0,0,1,.954.954v9.291a.949.949,0,0,0,.949.949h5.155a.949.949,0,0,0,.949-.949V6.861a.954.954,0,0,1,.954-.954h5.3a.854.854,0,0,0,.854-.854V1.494a.854.854,0,0,0-.854-.854" transform="translate(-51.619 -0.238)" fill="#d10c04"/>
      <path id="Path_3172" data-name="Path 3172" d="M68.371,17.051H63.35a1.248,1.248,0,0,1-1.134-.728l-.379-.825a1.209,1.209,0,0,0-1.1-.7H54.609a1.207,1.207,0,0,0-1.1.7l-.379.825A1.248,1.248,0,0,1,52,17.051H46.977c-1.117,0-1.268-.431-1.094-.81L52.619,1.566A1.753,1.753,0,0,1,54.213.543h6.923a1.753,1.753,0,0,1,1.593,1.023l6.737,14.676c.173.379.023.81-1.094.81M59.479,9.813,58.118,6.889a.456.456,0,0,0-.82-.013L55.821,9.8a.422.422,0,0,0,.307.629h3.037a.42.42,0,0,0,.313-.617" transform="translate(-17.053 -0.202)" fill="#d10c04"/>
      <path id="Path_3173" data-name="Path 3173" d="M267.089,8.331a.267.267,0,1,0-.267.266.266.266,0,0,0,.267-.266" transform="translate(-99.203 -3.001)" fill="#d10c04"/>
      <path id="Path_3174" data-name="Path 3174" d="M265.248,26.093h3.25a.207.207,0,0,0,.2-.162l.186-.848a.207.207,0,0,0-.2-.251h-3.208a.206.206,0,0,0-.2.153l-.23.847a.207.207,0,0,0,.2.261" transform="translate(-98.639 -9.241)" fill="#d10c04"/>
      <path id="Path_3175" data-name="Path 3175" d="M258.49,5.774a7.592,7.592,0,0,1,1.74-.883.594.594,0,0,1,.6.08,7.181,7.181,0,0,1,1.283-.244.284.284,0,0,1,.307.284v.571s-.161.2-.236.3A8.841,8.841,0,0,0,261.1,7.759a9.959,9.959,0,0,0-.531,1.6q-.1.421-.161.85s-.054.345-.057.4c-.006.142.021.142.082.2,0,0,.141.12.211.071.032-.022.242-.639.377-1.021a7.22,7.22,0,0,1,.527-1.2.388.388,0,0,1,.575-.107l2.5,1.922a3.009,3.009,0,0,1,1.1,3.049l-.052.23c-.044.193-.087.387-.131.581l-.175.775-.183.811q-.078.343-.155.687c-.021.09-.045.18-.068.269-.036.135.04.187.156.186h.23c.171,0,.21-.022.267-.177.026-.072.2-.557.288-.787l.271-.694.109-.282.6,1.767a.254.254,0,0,0,.24.173h4.377c1.113,0,1.264-.431,1.093-.812L265.913,1.709A2,2,0,0,0,264.1.543h-6.6a2,2,0,0,0-1.818,1.166L249,16.241c-.171.381-.02.812,1.093.812h6.241a.3.3,0,0,0,.3-.3V11.039a9.705,9.705,0,0,1,1.2-4.719.427.427,0,0,1-.156-.331.436.436,0,0,1,.436-.436.427.427,0,0,1,.371.22" transform="translate(-92.647 -0.202)" fill="#d10c04"/>
      <path id="Path_3176" data-name="Path 3176" d="M235.466,12.758c0,2.372-2.457,4.3-6.6,4.3h-13.7a1.132,1.132,0,0,1-1.131-1.131V1.666A1.132,1.132,0,0,1,215.163.535h12.429c5.215,0,7.389,2.035,7.389,4.546a4.2,4.2,0,0,1-1.911,3.437.265.265,0,0,0,.048.465,4.119,4.119,0,0,1,2.347,3.775m-9.734-6.013c1.275,0,1.818-.394,1.818-.88V5.6c0-.487-.41-.881-1.818-.881H221.2a.862.862,0,0,0-.861.861v.3a.861.861,0,0,0,.861.861Zm.392,6.123c1.334,0,1.9-.412,1.9-.922v-.274c0-.509-.429-.921-1.9-.921h-4.893a.889.889,0,0,0-.889.888v.34a.889.889,0,0,0,.889.888Z" transform="translate(-79.655 -0.199)" fill="#d10c04"/>
      <path id="Path_3177" data-name="Path 3177" d="M107.082.636h-5.236a.949.949,0,0,0-.95.949V8.008a.528.528,0,0,1-.966.3L94.911,1.513A2,2,0,0,0,93.258.636H87.437a.949.949,0,0,0-.949.949V16.147a.949.949,0,0,0,.95.949h5.213a.949.949,0,0,0,.949-.949V10.084a.528.528,0,0,1,.961-.3l5.057,6.468a2,2,0,0,0,1.633.848h5.831a.949.949,0,0,0,.949-.949V1.585a.949.949,0,0,0-.949-.949" transform="translate(-32.188 -0.236)" fill="#d10c04"/>
      <path id="Path_3178" data-name="Path 3178" d="M267.9,39.046h-1.228a.172.172,0,0,0-.172.171v4.618a.066.066,0,0,1-.12.039l-3.434-4.718a.292.292,0,0,0-.237-.12l-1.411.008a.2.2,0,0,0-.2.2V46.3a.171.171,0,0,0,.171.171h1.228a.171.171,0,0,0,.171-.171V41.67a.067.067,0,0,1,.121-.04l3.44,4.724a.292.292,0,0,0,.235.12h1.405a.2.2,0,0,0,.2-.2V39.217a.171.171,0,0,0-.171-.171" transform="translate(-97.169 -14.528)" fill="#850000"/>
      <path id="Path_3179" data-name="Path 3179" d="M245.083,44.7V39.233a.324.324,0,0,0-.325-.325h-.922a.324.324,0,0,0-.325.325l.005,6.784a.324.324,0,0,0,.325.324h5.608a.324.324,0,0,0,.325-.324v-.844a.324.324,0,0,0-.325-.324h-4.222a.144.144,0,0,1-.144-.144" transform="translate(-90.626 -14.48)" fill="#850000"/>
      <path id="Path_3180" data-name="Path 3180" d="M257.331,46.47H256.2a.221.221,0,0,1-.221-.221V39.276a.221.221,0,0,1,.221-.221h1.129a.221.221,0,0,1,.221.221v6.973a.221.221,0,0,1-.221.221" transform="translate(-95.267 -14.535)" fill="#850000"/>
      <path id="Path_3181" data-name="Path 3181" d="M221.255,39.041h-1.081a.262.262,0,0,0-.244.165l-2.812,7.066a.142.142,0,0,0,.132.195l1.442.008a.293.293,0,0,0,.281-.2c.109-.328.318-.961.388-1.168a.1.1,0,0,1,.1-.068h2.514a.1.1,0,0,1,.1.068c.07.207.279.84.388,1.168a.293.293,0,0,0,.281.2l1.443-.008a.142.142,0,0,0,.131-.195L221.5,39.206a.262.262,0,0,0-.243-.165m-1.423,4.395.814-2.378a.072.072,0,0,1,.137,0l.814,2.378a.092.092,0,0,1-.087.122h-1.591a.092.092,0,0,1-.087-.122" transform="translate(-80.8 -14.529)" fill="#850000"/>
      <path id="Path_3182" data-name="Path 3182" d="M209.812,43.522a2.245,2.245,0,1,1-.048-2.05.149.149,0,0,0,.23.047l.983-.844a.186.186,0,0,0,.036-.242,3.85,3.85,0,1,0,.207,3.871.182.182,0,0,0-.075-.24l-1.106-.62a.163.163,0,0,0-.227.077" transform="translate(-75.898 -14.399)" fill="#850000"/>
      <path id="Path_3183" data-name="Path 3183" d="M189.326,42.379a7.351,7.351,0,0,0-3.31-.723c-1.976-.118-1.149-1.414-.17-1.49a3.617,3.617,0,0,1,2.59.705.182.182,0,0,0,.247-.016c.2-.208.547-.6.731-.816a.194.194,0,0,0-.016-.273,4.871,4.871,0,0,0-3.9-.983,2.535,2.535,0,0,0-2.319,2.209,1.7,1.7,0,0,0,1,1.683,6.084,6.084,0,0,0,2.525.451,2.385,2.385,0,0,1,1.465.426.635.635,0,0,1-.128,1c-1.034.756-2.448.424-3.8-.578a.171.171,0,0,0-.206,0l-1.057.8a.134.134,0,0,0-.009.205,5.394,5.394,0,0,0,3.739,1.411,3.468,3.468,0,0,0,3.294-1.725,1.814,1.814,0,0,0-.681-2.288" transform="translate(-68.08 -14.403)" fill="#850000"/>
      <path id="Path_3184" data-name="Path 3184" d="M232.613,44.721V39.242a.318.318,0,0,0-.319-.318h-.934a.318.318,0,0,0-.318.319l.005,6.824a.29.29,0,0,0,.291.29h5.642a.324.324,0,0,0,.325-.324v-.844a.324.324,0,0,0-.325-.324h-4.222a.144.144,0,0,1-.144-.144" transform="translate(-85.985 -14.486)" fill="#850000"/>
      <path id="Path_3185" data-name="Path 3185" d="M281.92,42.215h-3.635a.265.265,0,0,0-.265.264v.9a.265.265,0,0,0,.265.264h1.906a.061.061,0,0,1,.052.09,2.243,2.243,0,0,1-1.7,1.049,2.294,2.294,0,0,1-2.452-2.236,2.241,2.241,0,0,1,4.051-1.325.271.271,0,0,0,.385.051c.272-.208.594-.453.834-.632a.279.279,0,0,0,.064-.385,3.852,3.852,0,1,0-3.088,6.146,3.747,3.747,0,0,0,3.5-2.246,6.547,6.547,0,0,0,.31-1.689.231.231,0,0,0-.232-.247" transform="translate(-102.153 -14.399)" fill="#850000"/>
      <path id="Path_3186" data-name="Path 3186" d="M179.332,46.366H178.2a.221.221,0,0,1-.221-.221V39.172a.221.221,0,0,1,.221-.221h1.129a.221.221,0,0,1,.221.221v6.973a.221.221,0,0,1-.221.221" transform="translate(-66.238 -14.496)" fill="#850000"/>
      <path id="Path_3187" data-name="Path 3187" d="M134.069,38.909h-1.081a.262.262,0,0,0-.244.165l-2.812,7.066a.142.142,0,0,0,.132.195l1.442.008a.293.293,0,0,0,.281-.2c.109-.328.318-.961.388-1.168a.1.1,0,0,1,.1-.068h2.514a.1.1,0,0,1,.1.068c.07.207.279.84.388,1.168a.293.293,0,0,0,.281.2l1.443-.008a.142.142,0,0,0,.131-.195l-2.812-7.066a.262.262,0,0,0-.243-.165M132.646,43.3l.814-2.378a.072.072,0,0,1,.137,0l.814,2.378a.092.092,0,0,1-.087.122h-1.591a.092.092,0,0,1-.087-.122" transform="translate(-48.353 -14.48)" fill="#850000"/>
      <path id="Path_3188" data-name="Path 3188" d="M69.816,38.909H68.736a.262.262,0,0,0-.244.165L65.68,46.14a.142.142,0,0,0,.132.195l1.442.008a.293.293,0,0,0,.281-.2c.109-.328.318-.961.388-1.168a.1.1,0,0,1,.1-.068h2.514a.1.1,0,0,1,.1.068c.07.207.279.84.388,1.168a.293.293,0,0,0,.281.2l1.443-.008a.142.142,0,0,0,.131-.195l-2.812-7.066a.262.262,0,0,0-.243-.165M68.393,43.3l.814-2.378a.072.072,0,0,1,.137,0l.814,2.378a.092.092,0,0,1-.087.122H68.48a.092.092,0,0,1-.087-.122" transform="translate(-24.44 -14.48)" fill="#850000"/>
      <path id="Path_3189" data-name="Path 3189" d="M43.814,38.94H42.734a.262.262,0,0,0-.244.165l-2.812,7.066a.142.142,0,0,0,.132.195l1.442.008a.293.293,0,0,0,.281-.2c.109-.328.318-.961.388-1.168a.1.1,0,0,1,.1-.068h2.514a.1.1,0,0,1,.1.068c.07.207.279.84.388,1.168a.293.293,0,0,0,.281.2l1.443-.008a.142.142,0,0,0,.131-.195l-2.812-7.066a.262.262,0,0,0-.243-.165m-1.423,4.395.814-2.378a.072.072,0,0,1,.137,0l.814,2.378a.092.092,0,0,1-.087.122H42.478a.092.092,0,0,1-.087-.122" transform="translate(-14.763 -14.492)" fill="#850000"/>
      <path id="Path_3190" data-name="Path 3190" d="M124.166,40.213v-.905a.333.333,0,0,0-.333-.333h-5.545a.333.333,0,0,0-.333.333v6.749a.334.334,0,0,0,.333.333h5.545a.333.333,0,0,0,.333-.333v-.929a.333.333,0,0,0-.333-.333h-4.2a.109.109,0,0,1-.109-.109V43.392a.109.109,0,0,1,.109-.109h3.491a.334.334,0,0,0,.333-.333v-.905a.333.333,0,0,0-.333-.333h-3.491a.109.109,0,0,1-.109-.109v-.949a.109.109,0,0,1,.109-.109h4.2a.333.333,0,0,0,.333-.333" transform="translate(-43.899 -14.505)" fill="#850000"/>
      <path id="Path_3191" data-name="Path 3191" d="M109.448,39.135v2.451a.112.112,0,0,1-.112.112h-3.583a.112.112,0,0,1-.112-.112v-2.45a.2.2,0,0,0-.2-.2h-1.175a.2.2,0,0,0-.2.2v7.019a.2.2,0,0,0,.2.2h1.175a.2.2,0,0,0,.2-.2V43.381a.112.112,0,0,1,.112-.112h3.583a.112.112,0,0,1,.112.112v2.773a.2.2,0,0,0,.2.2h1.175a.2.2,0,0,0,.2-.2V39.135a.2.2,0,0,0-.2-.2h-1.175a.2.2,0,0,0-.2.2" transform="translate(-38.731 -14.491)" fill="#850000"/>
      <path id="Path_3192" data-name="Path 3192" d="M163.845,39.015h-6.676a.273.273,0,0,0-.273.274v.941a.273.273,0,0,0,.273.274h2.4a.119.119,0,0,1,.119.119v5.543a.274.274,0,0,0,.274.274h1.091a.273.273,0,0,0,.273-.274V40.623a.119.119,0,0,1,.119-.119h2.4a.273.273,0,0,0,.273-.274v-.941a.273.273,0,0,0-.273-.274" transform="translate(-58.391 -14.52)" fill="#850000"/>
      <path id="Path_3193" data-name="Path 3193" d="M149.548,46.375l1.392-.019a.169.169,0,0,0,.135-.267l-2.022-2.846A2.24,2.24,0,0,0,150.522,41a2.32,2.32,0,0,0-2.351-2.106h-4.436a.344.344,0,0,0-.343.343l.006,6.756a.343.343,0,0,0,.343.343h.9a.33.33,0,0,0,.33-.33V43.547a.159.159,0,0,1,.159-.159h2a.2.2,0,0,1,.162.083l1.953,2.748a.369.369,0,0,0,.308.156M145.1,40.333H148.1a.838.838,0,0,1,.839.672.808.808,0,0,1-.8.944H145.1a.136.136,0,0,1-.136-.136V40.469a.136.136,0,0,1,.136-.136" transform="translate(-53.365 -14.475)" fill="#850000"/>
      <path id="Path_3194" data-name="Path 3194" d="M33.229,38.947H32a.172.172,0,0,0-.172.171v4.618a.066.066,0,0,1-.12.039l-3.434-4.718a.292.292,0,0,0-.237-.12l-1.411.008a.2.2,0,0,0-.2.2V46.2a.171.171,0,0,0,.171.171h1.228A.171.171,0,0,0,28,46.2v-4.63a.067.067,0,0,1,.121-.04l3.44,4.724a.292.292,0,0,0,.235.12H33.2a.2.2,0,0,0,.2-.2V39.118a.171.171,0,0,0-.171-.171" transform="translate(-9.835 -14.491)" fill="#850000"/>
      <path id="Path_3195" data-name="Path 3195" d="M87.69,42.48a7.351,7.351,0,0,0-3.31-.723c-1.976-.118-1.149-1.414-.17-1.49a3.617,3.617,0,0,1,2.59.705.182.182,0,0,0,.247-.016c.2-.208.547-.6.731-.816a.194.194,0,0,0-.016-.273,4.871,4.871,0,0,0-3.9-.983,2.535,2.535,0,0,0-2.319,2.209,1.7,1.7,0,0,0,1,1.683,6.084,6.084,0,0,0,2.525.451,2.385,2.385,0,0,1,1.465.426.635.635,0,0,1-.128,1c-1.034.756-2.448.424-3.8-.578a.171.171,0,0,0-.206,0l-1.057.8a.134.134,0,0,0-.009.205,5.394,5.394,0,0,0,3.739,1.411,3.468,3.468,0,0,0,3.294-1.725,1.814,1.814,0,0,0-.681-2.288" transform="translate(-30.255 -14.44)" fill="#850000"/>
      <path id="Path_3196" data-name="Path 3196" d="M5.875,43.522a2.245,2.245,0,1,1-.048-2.05.149.149,0,0,0,.23.047l.983-.844a.186.186,0,0,0,.036-.242A3.85,3.85,0,1,0,7.283,44.3a.182.182,0,0,0-.075-.24L6.1,43.445a.164.164,0,0,0-.227.077" transform="translate(0 -14.399)" fill="#850000"/>
      <path id="Path_3197" data-name="Path 3197" d="M16.952,38.94H15.872a.262.262,0,0,0-.244.165l-2.812,7.066a.142.142,0,0,0,.132.195l1.442.008a.293.293,0,0,0,.281-.2c.109-.328.318-.961.388-1.168a.1.1,0,0,1,.1-.068h2.514a.1.1,0,0,1,.1.068c.07.207.279.84.388,1.168a.293.293,0,0,0,.281.2l1.443-.008a.142.142,0,0,0,.131-.195L17.2,39.105a.262.262,0,0,0-.243-.165m-1.423,4.395.814-2.378a.072.072,0,0,1,.137,0l.814,2.378a.092.092,0,0,1-.087.122H15.616a.092.092,0,0,1-.087-.122" transform="translate(-4.766 -14.492)" fill="#850000"/>
      <path id="Path_3198" data-name="Path 3198" d="M56.924,38.938H53.507a.216.216,0,0,0-.216.216v7a.216.216,0,0,0,.216.216h3.417a3.454,3.454,0,0,0,3.454-3.454v-.529a3.454,3.454,0,0,0-3.454-3.454M56.551,44.9H54.964a.1.1,0,0,1-.1-.1v-4.3a.1.1,0,0,1,.1-.1h1.684a2.25,2.25,0,0,1,2.238,2.47A2.314,2.314,0,0,1,56.551,44.9" transform="translate(-19.833 -14.491)" fill="#850000"/>
      <path id="Path_3199" data-name="Path 3199" d="M78.541,37.337a2.634,2.634,0,0,1-1.1,1.887c-.153.073-.222-.007-.3-.119-.241-.334,0-.373.225-.61a1.469,1.469,0,0,0,.379-.625c-.032.041-.1.057-.227.057a.816.816,0,0,1-.85-.81.842.842,0,0,1,.907-.8.929.929,0,0,1,.972,1.02" transform="translate(-28.531 -13.516)" fill="#850000"/>
    </g>
  </g>
</svg>
